<svg width="305" height="44" viewBox="0 0 305 44" fill="none" xmlns="http://www.w3.org/2000/svg">
<g clip-path="url(#clip0_66_173)">
<path d="M231.414 7.20471C225.239 3.80807 219.411 4.24584 214.372 8.353C209.568 12.2682 207.598 19.5741 209.641 25.8948C213.734 38.5575 228.8 43.686 241.163 36.6242C245.296 34.2629 248.579 31.0668 250.792 26.8181C251.711 25.0533 252.451 23.5024 251.209 21.3287C250.172 19.5139 250.864 17.3188 252.958 16.285C254.878 15.3376 256.925 15.4738 258.296 17.3428C259.612 19.1363 259.59 21.1635 257.919 22.7266C256.636 23.9274 255.9 25.3133 255.239 26.8871C248.014 44.0864 224.524 49.5028 211.665 36.9678C204.19 29.6806 202.727 17.6772 208.283 9.22379C213.718 0.956655 225.712 -1.53022 233.694 4.06177C238.703 7.57127 240.583 12.6515 239.93 18.5543C239.364 23.674 236.512 27.2984 231.615 29.1756C224.971 31.7219 218.371 28.4236 216.452 21.5803C216.052 20.1561 215.629 18.7669 214.994 17.4057C214.057 15.3973 214.468 13.4501 216.384 12.178C218.268 10.9278 220.229 11.1444 221.757 12.8142C223.276 14.4732 223.281 16.3983 222.007 18.2564C219.985 21.2076 220.894 23.8911 224.389 25.185C229.658 27.1354 235.582 23.3702 236.138 17.6979C236.56 13.4014 234.941 9.98021 231.414 7.20471Z" fill="#18D5D1"/>
<path d="M108.086 25.9448C110.359 25.9404 112.337 25.9636 114.314 25.927C121.544 25.7932 126.193 21.5991 126.296 15.142C126.402 8.51138 121.837 4.00374 114.543 3.77337C109.702 3.62051 104.854 3.74692 100.009 3.71491C98.7523 3.7066 97.2288 3.91512 97.3287 1.90451C97.4203 0.0610976 98.902 0.38656 99.9957 0.42298C106.008 0.623201 112.071 -0.287443 118.029 0.926299C125.509 2.44974 129.245 6.34139 130.055 13.6021C130.576 18.28 128.753 24.9914 121.989 27.7856C121.646 27.9274 121.363 28.214 120.764 28.6359C124.027 33.2701 127.235 37.8269 130.562 42.5535C128.19 43.9364 126.718 43.2299 125.492 41.5205C123.072 38.1466 120.599 34.8082 118.278 31.3678C117.298 29.9163 116.229 29.1674 114.409 29.2298C110.953 29.3483 107.482 29.3956 104.031 29.2188C101.568 29.0927 100.944 30.1578 101.045 32.3749C101.17 35.1376 101.072 37.9104 101.07 40.6789C101.069 42.0866 100.806 43.3076 99.012 43.2712C97.3334 43.2372 97.2272 42.0385 97.2273 40.7776C97.2277 36.7237 97.2978 32.668 97.1939 28.6167C97.1387 26.4665 98.1484 25.8757 100.079 25.9341C102.647 26.0118 105.22 25.948 108.086 25.9448Z" fill="black"/>
<path d="M163.227 13.1565C166.885 21.2727 170.446 29.1861 174.338 37.838C176.936 32.1084 179.252 27.0439 181.532 21.9634C184.403 15.566 187.3 9.17898 190.069 2.73754C190.996 0.58209 192.316 -0.0554055 194.92 0.884047C193.253 4.64372 191.632 8.30513 190.005 11.9633C185.79 21.4384 181.575 30.9132 177.352 40.3849C176.711 41.8213 176.221 43.4087 174.145 43.3434C172.211 43.2826 171.842 41.7454 171.249 40.4136C165.782 28.145 160.319 15.875 154.868 3.59933C154.477 2.72009 153.853 1.87727 154.181 0.750527C156.279 -0.0959522 157.673 0.450482 158.579 2.65549C160.004 6.12586 161.603 9.52459 163.227 13.1565Z" fill="black"/>
<path d="M9.86741 40.1228C1.84148 34.6686 -1.5113 25.9346 0.633426 16.4226C2.60016 7.70004 9.36934 1.78076 18.9653 0.300788C25.12 -0.648442 30.7248 0.656435 35.7663 4.27147C36.6268 4.88843 38.0226 5.5394 36.854 7.07302C35.7587 8.5104 34.7938 7.8868 33.5998 7.09166C22.479 -0.314021 7.81286 4.50144 4.45457 16.6175C2.43794 23.8932 4.85879 31.631 10.5454 36.0858C16.6061 40.8337 25.0833 41.4532 31.6921 37.6111C32.5442 37.1157 33.3826 36.5777 34.154 35.9668C35.2755 35.0787 36.1292 35.3732 36.9176 36.4017C37.7934 37.5441 36.9881 38.1872 36.2176 38.8584C32.958 41.698 29.0263 43.0133 24.8516 43.4283C19.6282 43.9476 14.6182 43.0063 9.86741 40.1228Z" fill="black"/>
<path d="M69.586 7.08502C75.0658 19.0174 80.4528 30.7457 85.8916 42.5869C82.8576 44.1112 81.7888 42.5949 80.8421 40.4983C75.8793 29.5078 70.8678 18.5393 65.8684 7.56532C65.5528 6.8725 65.1965 6.19822 64.6059 5.00279C61.5516 11.7315 58.7097 17.9926 55.8676 24.2536C53.3345 29.8338 50.7833 35.4059 48.2776 40.9985C47.3708 43.0222 46.1317 43.9854 43.9811 42.8337C43.566 41.6274 44.2702 40.7966 44.6643 39.9375C50.2696 27.7181 55.9029 15.5116 61.5388 3.30624C62.189 1.89809 62.6002 0.358162 64.7406 0.366753C66.9156 0.37548 67.1884 2.02548 67.8657 3.38621C68.4381 4.53624 68.9529 5.71498 69.586 7.08502Z" fill="black"/>
<path d="M292.701 39.6709C295.951 39.68 298.904 39.6878 301.857 39.6997C303.178 39.705 304.206 40.0191 304.131 41.6757C304.062 43.2072 302.999 43.3508 301.864 43.3527C294.087 43.3659 286.31 43.366 278.533 43.3554C277.355 43.3538 276.365 43.091 276.402 41.5636C276.437 40.1339 277.279 39.7168 278.524 39.7133C283.15 39.7005 287.777 39.6855 292.701 39.6709Z" fill="black"/>
<path d="M302.543 23.1741C294.584 23.2181 286.894 23.2081 279.205 23.2642C277.145 23.2792 275.859 22.8149 276.683 20.3083C278.039 19.5468 279.543 19.9647 280.971 19.954C287.971 19.9017 294.971 19.9218 301.971 19.9291C302.817 19.93 303.872 19.6462 304.094 20.9164C304.278 21.9669 304.127 22.9153 302.543 23.1741Z" fill="black"/>
<path d="M304.091 1.76795C304.1 3.59283 303.003 3.70999 301.863 3.71139C294.068 3.72093 286.273 3.72107 278.477 3.71606C277.44 3.71539 276.479 3.62608 276.455 2.19363C276.43 0.701731 277.291 0.394983 278.542 0.397094C286.338 0.410237 294.133 0.395423 301.928 0.411324C302.79 0.413077 303.776 0.305692 304.091 1.76795Z" fill="black"/>
</g>
<defs>
<clipPath id="clip0_66_173">
<rect width="304.158" height="43.82" fill="white"/>
</clipPath>
</defs>
</svg>
