<svg xmlns="http://www.w3.org/2000/svg" xmlns:xlink="http://www.w3.org/1999/xlink" version="1.1" id="Layer_1" x="0px" y="0px" enable-background="new 0 0 992 320" xml:space="preserve" viewBox="200.91 108.02 512.39 73.82">
<path fill="#18D5D1" opacity="1.000000" stroke="none" d=" M633.754822,120.157196   C623.352539,114.435143 613.534607,115.172615 605.045349,122.091614   C596.952759,128.687302 593.633179,140.994949 597.074829,151.642792   C603.969727,172.974716 629.351013,181.614182 650.177246,169.717865   C657.141052,165.739975 662.671509,160.355652 666.399231,153.198257   C667.947632,150.225250 669.193909,147.612656 667.101257,143.950745   C665.354187,140.893539 666.519531,137.195557 670.048645,135.454025   C673.282776,133.858063 676.729919,134.087418 679.040100,137.235977   C681.256958,140.257431 681.220459,143.672470 678.405945,146.305618   C676.243652,148.328613 675.003906,150.663239 673.890198,153.314484   C661.719055,182.288834 622.147705,191.413269 600.485474,170.296631   C587.892212,158.020569 585.427307,137.799423 594.788147,123.558578   C603.942749,109.631599 624.149048,105.442169 637.594543,114.862534   C646.032959,120.774704 649.200378,129.333023 648.100830,139.276886   C647.147156,147.901672 642.342834,154.007339 634.092285,157.169739   C622.901001,161.459366 611.781128,155.902847 608.548828,144.374557   C607.876160,141.975296 607.162659,139.635132 606.092773,137.342010   C604.514160,133.958649 605.206848,130.678360 608.434937,128.535370   C611.607666,126.429176 614.912109,126.794067 617.486694,129.607101   C620.044617,132.401901 620.052612,135.644806 617.907471,138.775101   C614.500427,143.746689 616.032227,148.267380 621.920410,150.447205   C630.795532,153.732788 640.775146,147.389908 641.713196,137.834152   C642.423645,130.596176 639.696655,124.832848 633.754822,120.157196  z"/>
</svg>